<svg xmlns="http://www.w3.org/2000/svg" width="828.911" height="828.911" viewBox="0 0 828.911 828.911">
  <g id="Group_529" data-name="Group 529" transform="translate(-2085.255 -2396.051)">
    <g id="Group_214" data-name="Group 214" transform="translate(2085.255 2396.051)">
      <circle id="Ellipse_40" data-name="Ellipse 40" cx="414.455" cy="414.455" r="414.455" fill="#1a171d"/>
    </g>
    <g id="Group_280" data-name="Group 280" transform="translate(2116.126 2410.671)">
      <g id="Group_215" data-name="Group 215" transform="translate(0 16.251)">
        <circle id="Ellipse_41" data-name="Ellipse 41" cx="383.585" cy="383.585" r="383.585" fill="none" stroke="#ffe3e2" stroke-miterlimit="10" stroke-width="2"/>
        <circle id="Ellipse_42" data-name="Ellipse 42" cx="371.813" cy="371.813" r="371.813" transform="translate(11.771 11.771)" fill="none" stroke="#ffe3e2" stroke-miterlimit="10" stroke-width="2"/>
        <circle id="Ellipse_43" data-name="Ellipse 43" cx="360.042" cy="360.042" r="360.042" transform="translate(23.542 23.542)" fill="none" stroke="#ffe3e2" stroke-miterlimit="10" stroke-width="2"/>
        <circle id="Ellipse_44" data-name="Ellipse 44" cx="348.271" cy="348.271" r="348.271" transform="translate(35.313 35.313)" fill="none" stroke="#ffe3e2" stroke-miterlimit="10" stroke-width="2"/>
        <circle id="Ellipse_45" data-name="Ellipse 45" cx="336.5" cy="336.5" r="336.5" transform="translate(47.084 47.084)" fill="none" stroke="#ffe3e2" stroke-miterlimit="10" stroke-width="2"/>
        <circle id="Ellipse_46" data-name="Ellipse 46" cx="324.729" cy="324.729" r="324.729" transform="translate(58.855 58.855)" fill="none" stroke="#ffe3e2" stroke-miterlimit="10" stroke-width="2"/>
        <circle id="Ellipse_47" data-name="Ellipse 47" cx="312.958" cy="312.958" r="312.958" transform="translate(70.627 70.627)" fill="none" stroke="#ffe3e2" stroke-miterlimit="10" stroke-width="2"/>
        <circle id="Ellipse_48" data-name="Ellipse 48" cx="301.187" cy="301.187" r="301.187" transform="translate(82.398 82.398)" fill="none" stroke="#ffe3e2" stroke-miterlimit="10" stroke-width="2"/>
        <path id="Path_778" data-name="Path 778" d="M289.416,0c5.869,0,11.7.175,17.753.536a289.514,289.514,0,0,1,45.7,6.442C482.1,35.8,578.832,151.314,578.832,289.416c0,159.84-129.576,289.416-289.416,289.416S0,449.256,0,289.416,129.576,0,289.416,0Z" transform="translate(94.169 94.169)" fill="none" stroke="#ffe3e2" stroke-width="2"/>
        <circle id="Ellipse_50" data-name="Ellipse 50" cx="277.645" cy="277.645" r="277.645" transform="translate(105.94 105.94)" fill="none" stroke="#ffe3e2" stroke-miterlimit="10" stroke-width="2"/>
        <circle id="Ellipse_51" data-name="Ellipse 51" cx="265.874" cy="265.874" r="265.874" transform="translate(117.711 117.711)" fill="none" stroke="#ffe3e2" stroke-miterlimit="10" stroke-width="2"/>
        <circle id="Ellipse_52" data-name="Ellipse 52" cx="254.103" cy="254.103" r="254.103" transform="translate(129.482 129.482)" fill="none" stroke="#ffe3e2" stroke-miterlimit="10" stroke-width="2"/>
        <circle id="Ellipse_53" data-name="Ellipse 53" cx="242.332" cy="242.332" r="242.332" transform="translate(141.253 141.253)" fill="none" stroke="#ffe3e2" stroke-miterlimit="10" stroke-width="2"/>
        <circle id="Ellipse_54" data-name="Ellipse 54" cx="230.561" cy="230.561" r="230.561" transform="translate(153.024 153.024)" fill="none" stroke="#ffe3e2" stroke-miterlimit="10" stroke-width="2"/>
        <circle id="Ellipse_55" data-name="Ellipse 55" cx="218.789" cy="218.789" r="218.789" transform="translate(164.795 164.795)" fill="none" stroke="#ffe3e2" stroke-miterlimit="10" stroke-width="2"/>
        <circle id="Ellipse_56" data-name="Ellipse 56" cx="207.018" cy="207.018" r="207.018" transform="translate(176.566 176.566)" fill="none" stroke="#ffe3e2" stroke-miterlimit="10" stroke-width="2"/>
        <circle id="Ellipse_57" data-name="Ellipse 57" cx="195.247" cy="195.247" r="195.247" transform="translate(188.337 188.337)" fill="none" stroke="#ffe3e2" stroke-miterlimit="10" stroke-width="2"/>
        <circle id="Ellipse_58" data-name="Ellipse 58" cx="183.476" cy="183.476" r="183.476" transform="translate(200.108 200.108)" fill="none" stroke="#ffe3e2" stroke-miterlimit="10" stroke-width="2"/>
        <circle id="Ellipse_59" data-name="Ellipse 59" cx="171.705" cy="171.705" r="171.705" transform="translate(211.879 211.879)" fill="none" stroke="#ffe3e2" stroke-miterlimit="10" stroke-width="2"/>
        <circle id="Ellipse_60" data-name="Ellipse 60" cx="159.934" cy="159.934" r="159.934" transform="translate(223.651 223.651)" fill="none" stroke="#ffe3e2" stroke-miterlimit="10" stroke-width="2"/>
        <circle id="Ellipse_61" data-name="Ellipse 61" cx="148.163" cy="148.163" r="148.163" transform="translate(235.422 235.422)" fill="none" stroke="#ffe3e2" stroke-miterlimit="10" stroke-width="2"/>
      </g>
      <g id="Group_216" data-name="Group 216" transform="translate(152.095 0)">
        <path id="Path_89" data-name="Path 89" d="M2653.664,2822.808,2437.65,2527.067l-3.321-4.546-3.576-4.9-8.58-11.746,80.93-56.066,121.564-26.84,90.195,7.009Z" transform="translate(-2422.174 -2422.973)" fill="#1a171d"/>
      </g>
      <g id="Group_217" data-name="Group 217" transform="translate(152.949 55.769)">
        <rect id="Rectangle_106" data-name="Rectangle 106" width="79.724" height="8.777" transform="translate(0 47.023) rotate(-36.145)" fill="#1a171d"/>
      </g>
      <g id="Group_218" data-name="Group 218" transform="translate(165.59 77.369)">
        <rect id="Rectangle_107" data-name="Rectangle 107" width="79.724" height="8.777" transform="translate(0 47.023) rotate(-36.145)" fill="#1a171d"/>
      </g>
      <g id="Group_219" data-name="Group 219" transform="translate(169.603 104.681)">
        <rect id="Rectangle_108" data-name="Rectangle 108" width="79.724" height="8.777" transform="translate(0 47.023) rotate(-36.145)" fill="#1a171d"/>
      </g>
      <g id="Group_220" data-name="Group 220" transform="translate(175.289 128.568)">
        <rect id="Rectangle_109" data-name="Rectangle 109" width="79.724" height="8.777" transform="translate(0 47.023) rotate(-36.145)" fill="#1a171d"/>
      </g>
      <g id="Group_221" data-name="Group 221" transform="translate(181.066 108.562)">
        <rect id="Rectangle_110" data-name="Rectangle 110" width="79.724" height="8.777" transform="translate(0 47.023) rotate(-36.145)" fill="#1a171d"/>
      </g>
      <g id="Group_222" data-name="Group 222" transform="translate(200.572 120.969)">
        <rect id="Rectangle_111" data-name="Rectangle 111" width="79.724" height="8.777" transform="translate(0 47.023) rotate(-36.145)" fill="#1a171d"/>
      </g>
      <g id="Group_223" data-name="Group 223" transform="translate(208.714 132.117)">
        <rect id="Rectangle_112" data-name="Rectangle 112" width="79.724" height="8.777" transform="translate(0 47.023) rotate(-36.145)" fill="#1a171d"/>
      </g>
      <g id="Group_224" data-name="Group 224" transform="translate(201.241 151.013)">
        <rect id="Rectangle_113" data-name="Rectangle 113" width="79.724" height="8.777" transform="translate(0 47.023) rotate(-36.145)" fill="#1a171d"/>
      </g>
      <g id="Group_225" data-name="Group 225" transform="translate(198.076 171.328)">
        <rect id="Rectangle_114" data-name="Rectangle 114" width="79.724" height="8.777" transform="translate(0 47.023) rotate(-36.145)" fill="#1a171d"/>
      </g>
      <g id="Group_226" data-name="Group 226" transform="translate(229.479 176.221)">
        <rect id="Rectangle_115" data-name="Rectangle 115" width="79.724" height="8.777" transform="translate(0 47.023) rotate(-36.145)" fill="#1a171d"/>
      </g>
      <g id="Group_227" data-name="Group 227" transform="translate(245.732 178.753)">
        <rect id="Rectangle_116" data-name="Rectangle 116" width="79.724" height="8.777" transform="translate(0 47.023) rotate(-36.145)" fill="#1a171d"/>
      </g>
      <g id="Group_228" data-name="Group 228" transform="translate(237.854 198.121)">
        <rect id="Rectangle_117" data-name="Rectangle 117" width="79.724" height="8.777" transform="translate(0 47.023) rotate(-36.145)" fill="#1a171d"/>
      </g>
      <g id="Group_229" data-name="Group 229" transform="translate(252.821 201.865)">
        <rect id="Rectangle_118" data-name="Rectangle 118" width="79.724" height="8.777" transform="translate(0 47.023) rotate(-36.145)" fill="#1a171d"/>
      </g>
      <g id="Group_230" data-name="Group 230" transform="translate(265.612 206.471)">
        <rect id="Rectangle_119" data-name="Rectangle 119" width="79.724" height="8.777" transform="translate(0 47.023) rotate(-36.145)" fill="#1a171d"/>
      </g>
      <g id="Group_231" data-name="Group 231" transform="translate(270.879 217.225)">
        <rect id="Rectangle_120" data-name="Rectangle 120" width="79.724" height="8.777" transform="translate(0 47.023) rotate(-36.145)" fill="#1a171d"/>
      </g>
      <g id="Group_232" data-name="Group 232" transform="translate(409.61 24.288)">
        <rect id="Rectangle_121" data-name="Rectangle 121" width="61.736" height="8.063" transform="translate(1.241 0) rotate(8.855)" fill="#1a171d"/>
      </g>
      <g id="Group_233" data-name="Group 233" transform="translate(389.153 32.831)">
        <rect id="Rectangle_122" data-name="Rectangle 122" width="61.736" height="8.063" transform="translate(1.241 0) rotate(8.855)" fill="#1a171d"/>
      </g>
      <g id="Group_234" data-name="Group 234" transform="translate(394.954 44.701)">
        <rect id="Rectangle_123" data-name="Rectangle 123" width="61.736" height="8.063" transform="translate(1.241 0) rotate(8.855)" fill="#1a171d"/>
      </g>
      <g id="Group_235" data-name="Group 235" transform="translate(393.015 57.15)">
        <rect id="Rectangle_124" data-name="Rectangle 124" width="61.736" height="8.063" transform="translate(1.241 0) rotate(8.855)" fill="#1a171d"/>
      </g>
      <g id="Group_236" data-name="Group 236" transform="translate(378.313 102.409)">
        <rect id="Rectangle_125" data-name="Rectangle 125" width="61.736" height="8.063" transform="translate(1.241 0) rotate(8.855)" fill="#1a171d"/>
      </g>
      <g id="Group_237" data-name="Group 237" transform="translate(384.115 114.278)">
        <rect id="Rectangle_126" data-name="Rectangle 126" width="61.736" height="8.063" transform="translate(1.241 0) rotate(8.855)" fill="#1a171d"/>
      </g>
      <g id="Group_238" data-name="Group 238" transform="translate(382.175 126.727)">
        <rect id="Rectangle_127" data-name="Rectangle 127" width="61.736" height="8.063" transform="translate(1.241 0) rotate(8.855)" fill="#1a171d"/>
      </g>
      <g id="Group_239" data-name="Group 239" transform="translate(369.198 160.919)">
        <rect id="Rectangle_128" data-name="Rectangle 128" width="61.736" height="8.063" transform="translate(1.241 0) rotate(8.855)" fill="#1a171d"/>
      </g>
      <g id="Group_240" data-name="Group 240" transform="translate(374.999 172.789)">
        <rect id="Rectangle_129" data-name="Rectangle 129" width="61.736" height="8.063" transform="translate(1.241 0) rotate(8.855)" fill="#1a171d"/>
      </g>
      <g id="Group_241" data-name="Group 241" transform="translate(372.876 186.42)">
        <rect id="Rectangle_130" data-name="Rectangle 130" width="74.918" height="8.063" transform="translate(1.241 0) rotate(8.855)" fill="#1a171d"/>
      </g>
      <g id="Group_242" data-name="Group 242" transform="translate(363.769 195.761)">
        <rect id="Rectangle_131" data-name="Rectangle 131" width="61.736" height="8.063" transform="translate(1.241 0) rotate(8.855)" fill="#1a171d"/>
      </g>
      <g id="Group_243" data-name="Group 243" transform="translate(369.571 207.631)">
        <rect id="Rectangle_132" data-name="Rectangle 132" width="61.736" height="8.063" transform="translate(1.241 0) rotate(8.855)" fill="#1a171d"/>
      </g>
      <g id="Group_244" data-name="Group 244" transform="translate(367.631 220.08)">
        <rect id="Rectangle_133" data-name="Rectangle 133" width="61.736" height="8.063" transform="translate(1.241 0) rotate(8.855)" fill="#1a171d"/>
      </g>
      <g id="Group_245" data-name="Group 245" transform="translate(364.067 242.958)">
        <rect id="Rectangle_134" data-name="Rectangle 134" width="61.736" height="8.063" transform="translate(1.241 0) rotate(8.855)" fill="#1a171d"/>
      </g>
      <g id="Group_246" data-name="Group 246" transform="translate(387.701 91.26)">
        <rect id="Rectangle_135" data-name="Rectangle 135" width="61.736" height="8.063" transform="translate(1.241 0) rotate(8.855)" fill="#1a171d"/>
      </g>
      <g id="Group_247" data-name="Group 247" transform="translate(381.977 78.893)">
        <rect id="Rectangle_136" data-name="Rectangle 136" width="61.736" height="8.063" transform="translate(1.241 0) rotate(8.855)" fill="#1a171d"/>
      </g>
      <g id="Group_248" data-name="Group 248" transform="translate(307.02 398.378)">
        <path id="Path_90" data-name="Path 90" d="M2784.433,3156.558l203.923,304.2,3.135,4.676,3.376,5.036,8.1,12.083-83.123,52.76L2797.3,3557.237l-89.839-10.637Z" transform="translate(-2707.457 -3156.558)" fill="#1a171d"/>
      </g>
      <g id="Group_249" data-name="Group 249" transform="translate(531.368 697.181)">
        <rect id="Rectangle_137" data-name="Rectangle 137" width="79.724" height="8.777" transform="translate(71.108 7.29) rotate(146.164)" fill="#1a171d"/>
      </g>
      <g id="Group_250" data-name="Group 250" transform="translate(519.608 675.089)">
        <rect id="Rectangle_138" data-name="Rectangle 138" width="79.724" height="8.777" transform="translate(71.108 7.29) rotate(146.164)" fill="#1a171d"/>
      </g>
      <g id="Group_251" data-name="Group 251" transform="translate(516.698 647.637)">
        <rect id="Rectangle_139" data-name="Rectangle 139" width="79.724" height="8.777" transform="translate(71.108 7.29) rotate(146.164)" fill="#1a171d"/>
      </g>
      <g id="Group_252" data-name="Group 252" transform="translate(511.979 623.54)">
        <rect id="Rectangle_140" data-name="Rectangle 140" width="79.724" height="8.777" transform="translate(71.108 7.29) rotate(146.164)" fill="#1a171d"/>
      </g>
      <g id="Group_253" data-name="Group 253" transform="translate(505.401 643.298)">
        <rect id="Rectangle_141" data-name="Rectangle 141" width="79.724" height="8.777" transform="translate(71.108 7.29) rotate(146.164)" fill="#1a171d"/>
      </g>
      <g id="Group_254" data-name="Group 254" transform="translate(486.41 630.114)">
        <rect id="Rectangle_142" data-name="Rectangle 142" width="79.724" height="8.777" transform="translate(71.108 7.29) rotate(146.164)" fill="#1a171d"/>
      </g>
      <g id="Group_255" data-name="Group 255" transform="translate(478.724 618.648)">
        <rect id="Rectangle_143" data-name="Rectangle 143" width="79.724" height="8.777" transform="translate(71.108 7.29) rotate(146.164)" fill="#1a171d"/>
      </g>
      <g id="Group_256" data-name="Group 256" transform="translate(486.953 600.069)">
        <rect id="Rectangle_144" data-name="Rectangle 144" width="79.724" height="8.777" transform="translate(71.108 7.29) rotate(146.164)" fill="#1a171d"/>
      </g>
      <g id="Group_257" data-name="Group 257" transform="translate(490.933 579.897)">
        <rect id="Rectangle_145" data-name="Rectangle 145" width="79.724" height="8.777" transform="translate(71.108 7.29) rotate(146.164)" fill="#1a171d"/>
      </g>
      <g id="Group_258" data-name="Group 258" transform="translate(459.753 573.743)">
        <rect id="Rectangle_146" data-name="Rectangle 146" width="79.724" height="8.777" transform="translate(71.108 7.29) rotate(146.164)" fill="#1a171d"/>
      </g>
      <g id="Group_259" data-name="Group 259" transform="translate(443.615 570.559)">
        <rect id="Rectangle_147" data-name="Rectangle 147" width="79.724" height="8.777" transform="translate(71.108 7.29) rotate(146.164)" fill="#1a171d"/>
      </g>
      <g id="Group_260" data-name="Group 260" transform="translate(452.267 551.523)">
        <rect id="Rectangle_148" data-name="Rectangle 148" width="79.724" height="8.777" transform="translate(71.108 7.29) rotate(146.164)" fill="#1a171d"/>
      </g>
      <g id="Group_261" data-name="Group 261" transform="translate(437.463 547.179)">
        <rect id="Rectangle_149" data-name="Rectangle 149" width="79.724" height="8.777" transform="translate(71.108 7.29) rotate(146.164)" fill="#1a171d"/>
      </g>
      <g id="Group_262" data-name="Group 262" transform="translate(424.868 542.062)">
        <rect id="Rectangle_150" data-name="Rectangle 150" width="79.724" height="8.777" transform="translate(71.108 7.29) rotate(146.164)" fill="#1a171d"/>
      </g>
      <g id="Group_263" data-name="Group 263" transform="translate(420.039 531.105)">
        <rect id="Rectangle_151" data-name="Rectangle 151" width="79.724" height="8.777" transform="translate(71.108 7.29) rotate(146.164)" fill="#1a171d"/>
      </g>
      <g id="Group_264" data-name="Group 264" transform="translate(281.053 752.658)">
        <rect id="Rectangle_152" data-name="Rectangle 152" width="61.736" height="8.063" transform="matrix(-0.981, -0.194, 0.194, -0.981, 60.568, 19.864)" fill="#1a171d"/>
      </g>
      <g id="Group_265" data-name="Group 265" transform="translate(301.838 744.945)">
        <rect id="Rectangle_153" data-name="Rectangle 153" width="61.736" height="8.063" transform="matrix(-0.981, -0.194, 0.194, -0.981, 60.568, 19.864)" fill="#1a171d"/>
      </g>
      <g id="Group_266" data-name="Group 266" transform="translate(296.52 732.851)">
        <rect id="Rectangle_154" data-name="Rectangle 154" width="61.736" height="8.063" transform="matrix(-0.981, -0.194, 0.194, -0.981, 60.568, 19.864)" fill="#1a171d"/>
      </g>
      <g id="Group_267" data-name="Group 267" transform="translate(298.959 720.491)">
        <rect id="Rectangle_155" data-name="Rectangle 155" width="61.736" height="8.063" transform="matrix(-0.981, -0.194, 0.194, -0.981, 60.568, 19.864)" fill="#1a171d"/>
      </g>
      <g id="Group_268" data-name="Group 268" transform="translate(315.472 675.861)">
        <rect id="Rectangle_156" data-name="Rectangle 156" width="61.736" height="8.063" transform="matrix(-0.981, -0.194, 0.194, -0.981, 60.568, 19.864)" fill="#1a171d"/>
      </g>
      <g id="Group_269" data-name="Group 269" transform="translate(310.153 663.767)">
        <rect id="Rectangle_157" data-name="Rectangle 157" width="61.736" height="8.063" transform="matrix(-0.981, -0.194, 0.194, -0.981, 60.568, 19.864)" fill="#1a171d"/>
      </g>
      <g id="Group_270" data-name="Group 270" transform="translate(312.593 651.406)">
        <rect id="Rectangle_158" data-name="Rectangle 158" width="61.736" height="8.063" transform="matrix(-0.981, -0.194, 0.194, -0.981, 60.568, 19.864)" fill="#1a171d"/>
      </g>
      <g id="Group_271" data-name="Group 271" transform="translate(326.937 617.766)">
        <rect id="Rectangle_159" data-name="Rectangle 159" width="61.736" height="8.063" transform="matrix(-0.981, -0.194, 0.194, -0.981, 60.568, 19.864)" fill="#1a171d"/>
      </g>
      <g id="Group_272" data-name="Group 272" transform="translate(321.619 605.672)">
        <rect id="Rectangle_160" data-name="Rectangle 160" width="61.736" height="8.063" transform="matrix(-0.981, -0.194, 0.194, -0.981, 60.568, 19.864)" fill="#1a171d"/>
      </g>
      <g id="Group_273" data-name="Group 273" transform="translate(311.356 589.585)">
        <rect id="Rectangle_161" data-name="Rectangle 161" width="74.918" height="8.063" transform="matrix(-0.981, -0.194, 0.194, -0.981, 73.501, 22.416)" fill="#1a171d"/>
      </g>
      <g id="Group_274" data-name="Group 274" transform="translate(333.765 583.17)">
        <rect id="Rectangle_162" data-name="Rectangle 162" width="61.736" height="8.063" transform="matrix(-0.981, -0.194, 0.194, -0.981, 60.568, 19.864)" fill="#1a171d"/>
      </g>
      <g id="Group_275" data-name="Group 275" transform="translate(328.446 571.076)">
        <rect id="Rectangle_163" data-name="Rectangle 163" width="61.736" height="8.063" transform="matrix(-0.981, -0.194, 0.194, -0.981, 60.568, 19.864)" fill="#1a171d"/>
      </g>
      <g id="Group_276" data-name="Group 276" transform="translate(330.885 558.716)">
        <rect id="Rectangle_164" data-name="Rectangle 164" width="61.736" height="8.063" transform="matrix(-0.981, -0.194, 0.194, -0.981, 60.568, 19.864)" fill="#1a171d"/>
      </g>
      <g id="Group_277" data-name="Group 277" transform="translate(335.368 536)">
        <rect id="Rectangle_165" data-name="Rectangle 165" width="61.736" height="8.063" transform="matrix(-0.981, -0.194, 0.194, -0.981, 60.568, 19.864)" fill="#1a171d"/>
      </g>
      <g id="Group_278" data-name="Group 278" transform="translate(305.643 686.622)">
        <rect id="Rectangle_166" data-name="Rectangle 166" width="61.736" height="8.063" transform="matrix(-0.981, -0.194, 0.194, -0.981, 60.568, 19.864)" fill="#1a171d"/>
      </g>
      <g id="Group_279" data-name="Group 279" transform="translate(310.864 699.211)">
        <rect id="Rectangle_167" data-name="Rectangle 167" width="61.736" height="8.063" transform="matrix(-0.981, -0.194, 0.194, -0.981, 60.568, 19.864)" fill="#1a171d"/>
      </g>
    </g>
    <g id="Group_281" data-name="Group 281" transform="translate(2374.711 2685.507)">
      <circle id="Ellipse_62" data-name="Ellipse 62" cx="125" cy="125" r="125" transform="translate(0 0)" fill="#ffe3e2"/>
    </g>
    <g id="Group_306" data-name="Group 306" transform="translate(2427.892 2746.234)">
      <g id="Group_305" data-name="Group 305">
        <g id="Group_282" data-name="Group 282" transform="translate(1.774 44.555)">
          <path id="Path_91" data-name="Path 91" d="M2748.316,3141.257c.642.32,1.2.576,1.735.871a9.284,9.284,0,0,1-.18,16.552,14.043,14.043,0,0,1-6.6,1.462c-7.561.054-15.122.022-22.682.016a4.906,4.906,0,0,1-.705-.1c-.49-1.268-.584-6.917-.125-9.078h3.334c.415-1.47.544-15.439.2-18.7l-3.757-.232c-.086-3.015-.082-5.928.011-8.946a10.81,10.81,0,0,1,1.329-.174q10.88-.01,21.759.006a12.352,12.352,0,0,1,6.818,1.944,9.209,9.209,0,0,1,.433,15.3C2749.4,3140.54,2748.889,3140.867,2748.316,3141.257Zm-12.95,10.521c1.81,0,3.454.11,5.075-.034a2.407,2.407,0,0,0,2.193-2.513,2.567,2.567,0,0,0-2.008-2.878,16.092,16.092,0,0,0-5.261,0Zm-.067-14.442c1.276,0,2.371.088,3.447-.021a2.754,2.754,0,0,0,2.628-2.8,2.685,2.685,0,0,0-2.43-2.782,25.373,25.373,0,0,0-3.537-.031c-.04.541-.1,1.016-.1,1.491C2735.29,3134.524,2735.3,3135.858,2735.3,3137.337Z" transform="translate(-2719.463 -3122.934)" fill="#1a171d"/>
        </g>
        <g id="Group_283" data-name="Group 283" transform="translate(38.989 44.676)">
          <path id="Path_92" data-name="Path 92" d="M2820.386,3160.149h-32.393v-9l3.617-.215V3132.39l-3.614-.233v-9H2820.5c.023,3.748.05,7.458-.033,11.371l-10.637,1.06-.179-3.2a26.593,26.593,0,0,0-5.364.016v4.557h10.268c.033,3.081.055,5.989-.03,9.142h-10.237v4.839h5.313l.252-2.758,10.532-1.045Z" transform="translate(-2787.993 -3123.157)" fill="#1a171d"/>
        </g>
        <g id="Group_284" data-name="Group 284" transform="translate(104.444 44.655)">
          <path id="Path_93" data-name="Path 93" d="M2945.819,3123.118v13.99l-10.6,1.081v-5.715l-1.522-.194c-.384,1.409-.5,15.942-.147,18.678h4.685c.085,3.14.03,6.058.042,8.935-1.5.467-20.431.511-22.171.072v-8.842h4.422c.479-1.5.627-15.424.254-18.685l-1.555-.175v4.846l-10.7,1.085v-15.076Z" transform="translate(-2908.523 -3123.118)" fill="#1a171d"/>
        </g>
        <g id="Group_285" data-name="Group 285" transform="translate(73.531 43.896)">
          <path id="Path_94" data-name="Path 94" d="M2880.45,3124.046v10.107l-10.649,1.023v-4.509a7.551,7.551,0,0,0-4.29.352,2.378,2.378,0,0,0-1.521,2.308,2.062,2.062,0,0,0,1.734,1.9c1.6.433,3.238.732,4.822,1.214a41.982,41.982,0,0,1,5.722,2c3.622,1.707,5.993,4.412,6.166,8.656a11.036,11.036,0,0,1-5.545,10.509,17.62,17.62,0,0,1-7.5,2.369,39.217,39.217,0,0,1-16.336-1.985,2.272,2.272,0,0,1-.5-.344v-9.888c3.479-.562,6.939-.734,10.644-1.117v4.654a10.1,10.1,0,0,0,5.42-.461,2.139,2.139,0,0,0,1.477-2.3,2.017,2.017,0,0,0-1.774-1.85c-1.428-.357-2.9-.556-4.307-.976a45.272,45.272,0,0,1-6.43-2.186c-8.531-4.034-7.122-14.99-.949-18.938a19.175,19.175,0,0,1,9.244-2.8A38.576,38.576,0,0,1,2880.45,3124.046Z" transform="translate(-2851.599 -3121.72)" fill="#1a171d"/>
        </g>
        <g id="Group_286" data-name="Group 286" transform="translate(0 84.12)">
          <path id="Path_95" data-name="Path 95" d="M2716.2,3195.924h13.657a47.616,47.616,0,0,1,.082,6.652l-2.318.293c.635,3.7,1.256,7.308,1.917,11.157,1.348-6.133,2.648-12.046,4-18.176,2.943-.073,5.8-.039,8.871-.009,1.312,5.93,2.6,11.772,3.9,17.615l.219-.008,1.752-10.479-2.172-.421v-6.4c1.26-.425,11.524-.511,13.668-.078a48.961,48.961,0,0,1,.034,6.512l-2.437.266c-2.028,6.773-4.079,13.625-6.135,20.5h-9.74c-1.248-4.99-2.4-9.994-3.592-15.079l-3.373,15.066h-9.817c-2.054-6.848-4.1-13.651-6.145-20.478l-2.364-.249Z" transform="translate(-2716.197 -3195.79)" fill="#f7594a"/>
        </g>
        <g id="Group_287" data-name="Group 287" transform="translate(102.096 84.085)">
          <path id="Path_96" data-name="Path 96" d="M2904.2,3223.275v-6.591l2.794-.33v-13.522l-2.667-.251v-6.448c1.2-.424,11.162-.564,13.856-.192a20,20,0,0,1,.088,6.624l-1.819.281v4.12l5.38-3.935-1.019-.566V3195.9h14.321v6.661l-2.5.256-5.677,4.2,6.938,9.324,2.475.325v6.4c-1.4.395-13.256.483-15.548.116v-6.444l1.474-.537-2.735-3.729-3.107,2.265c-.033.46-.067.932-.109,1.508l2.032.479v6.544Z" transform="translate(-2904.2 -3195.726)" fill="#f7594a"/>
        </g>
        <g id="Group_288" data-name="Group 288" transform="translate(72.423 84.121)">
          <path id="Path_97" data-name="Path 97" d="M2872.462,3212.846l2.218,3.553,3,.28v6.624h-9.633l-4.358-8.63h-2c-.029.525-.056,1.039-.088,1.642l1.994.378v6.622h-13.91v-6.641l2.69-.28c.216-4.474.064-8.919.094-13.5l-2.812-.286c-.188-2.2-.065-4.368-.071-6.688.768-.041,1.365-.1,1.961-.1,4.608-.008,9.219-.071,13.825.032a16.417,16.417,0,0,1,4.875.785c7.054,2.407,7.522,11.131,3.4,15.088C2873.305,3212.058,2872.95,3212.387,2872.462,3212.846Zm-10.8-4.871a27.017,27.017,0,0,0,2.907-.019,2.225,2.225,0,0,0,2.074-2.547,2.275,2.275,0,0,0-2.048-2.592,25.345,25.345,0,0,0-2.933-.021Z" transform="translate(-2849.56 -3195.791)" fill="#f7594a"/>
        </g>
        <g id="Group_289" data-name="Group 289" transform="translate(49.842 18.839)">
          <path id="Path_98" data-name="Path 98" d="M2838.176,3091.346l2.287.364a30.637,30.637,0,0,1,.087,6.112h-15.263c-.068-1.927-.086-3.851.033-5.879l2.661-.352a6.437,6.437,0,0,0,.2-1.084c.02-1.967-.01-3.934.018-5.9a2.6,2.6,0,0,0-1.574-2.492,4.253,4.253,0,0,0-5.975,3.025,10.1,10.1,0,0,0-.043,1.473c0,1.59,0,3.181,0,4.939l2.865.38v5.719c-1.381.361-13.491.416-15.493.058v-5.722l2.706-.5v-9.615l-2.692-.29v-5.9c4.02-.174,8.027-.059,12.158-.079.066,1.4.122,2.6.193,4.111.616-.529,1.032-.853,1.411-1.216,3.35-3.208,9.065-3.67,13.072-1.557a5.591,5.591,0,0,1,3.156,5.063c.051,2.457.03,4.916.06,7.375C2838.049,3090.027,2838.129,3090.679,2838.176,3091.346Z" transform="translate(-2807.978 -3075.578)" fill="#0080de"/>
        </g>
        <g id="Group_290" data-name="Group 290" transform="translate(42.916 83.722)">
          <path id="Path_99" data-name="Path 99" d="M2809.632,3223.523c-6.709-.007-11.959-3.667-13.688-9.658a14.77,14.77,0,0,1,1.574-12.578c3.106-4.812,7.824-6.516,13.339-6.192a13.39,13.39,0,0,1,12.719,10.433,15.559,15.559,0,0,1-.584,9.411C2820.944,3220.321,2815.922,3223.53,2809.632,3223.523Zm4.811-13.972a9.2,9.2,0,0,0-.942-4.715c-1.5-2.913-4.881-4.088-7.108-1.1a4.55,4.55,0,0,0-.575.938,11.159,11.159,0,0,0,.112,9.428,4.03,4.03,0,0,0,3.719,2.581,3.93,3.93,0,0,0,3.709-2.585A13.492,13.492,0,0,0,2814.443,3209.552Z" transform="translate(-2795.223 -3195.057)" fill="#f7594a"/>
        </g>
        <g id="Group_291" data-name="Group 291" transform="translate(27.742 12.176)">
          <path id="Path_100" data-name="Path 100" d="M2771.255,3069.5h-3.973c0-2.07,0-3.948,0-5.828,1.26-.387,17.6-.51,20.285-.134.779,1.832.3,3.783.424,5.859l-3.474.229c-.57,1.436-.681,14.072-.145,16.195l3.549.173c.028,1.063.066,2.083.081,3.1.014.979,0,1.958,0,2.9-1.39.4-17.938.5-20.416.136v-6.082l3.653-.248C2771.683,3084.31,2771.729,3071.523,2771.255,3069.5Z" transform="translate(-2767.282 -3063.31)" fill="#0080de"/>
        </g>
        <g id="Group_292" data-name="Group 292" transform="translate(82.508 18.748)">
          <path id="Path_101" data-name="Path 101" d="M2894.329,3084.691l-8.161.927c-.975-4.2-1.074-4.323-3.936-4.985-2.875.6-3.76,1.567-3.882,4.45a30.355,30.355,0,0,0,.042,4.569,3.893,3.893,0,0,0,6.336,2.752,11.548,11.548,0,0,0,1.84-2.7h7.8a8.142,8.142,0,0,1-5.392,7.425,19,19,0,0,1-15.016-.713c-7.47-3.5-7.751-14.522-.895-18.451,5.3-3.035,10.934-3.491,16.555-.706C2892.486,3078.683,2893.892,3081.163,2894.329,3084.691Z" transform="translate(-2868.13 -3075.411)" fill="#0080de"/>
        </g>
        <g id="Group_293" data-name="Group 293" transform="translate(53.746 113.81)">
          <path id="Path_102" data-name="Path 102" d="M2818.2,3250.46H2829.8l5.093,14.29,1.588.328v4.339a39.938,39.938,0,0,1-9.756.071v-4.273l1.332-.592a3.2,3.2,0,0,0-.058-.563c-1.686.038-3.017-.153-4.779-.051-.127.065-.076.24-.036.467l1.435.791v4.134a35.125,35.125,0,0,1-9.229.1,14.36,14.36,0,0,1-.125-4.37l1.695-.4,3.322-9.434-2.089-.271Zm8.389,8.566c-.3-1.314-.573-2.468-.939-4.046-.368,1.6-.636,2.77-.929,4.046Z" transform="translate(-2815.167 -3250.46)" fill="#f7594a"/>
        </g>
        <g id="Group_294" data-name="Group 294" transform="translate(92.839 113.655)">
          <path id="Path_103" data-name="Path 103" d="M2895.623,3262.236v2.426h2.524l.563-1.348c.791-.1,1.631-.221,2.477-.3s1.7-.119,2.7-.186v6.426c-1.325.448-14.8.524-16.735.079v-4.4l1.75-.261V3255.2l-1.724-.352v-4.322c1.3-.383,14.132-.494,16.7-.12a34.182,34.182,0,0,1,.114,5.788l-5.306.6-.505-1.673h-2.522v2.242h4.952a14.146,14.146,0,0,1,.171,4.87Z" transform="translate(-2887.153 -3250.177)" fill="#f7594a"/>
        </g>
        <g id="Group_295" data-name="Group 295" transform="translate(16.542 113.684)">
          <path id="Path_104" data-name="Path 104" d="M2755.09,3263.853c.558,1.479,1.787.62,2.543,1.272v4.211a54.068,54.068,0,0,1-10.715.086,12.782,12.782,0,0,1-.137-4.4l1.979-.4v-9.379l-1.946-.379v-4.434a9.379,9.379,0,0,1,1.3-.194c3.252-.015,6.5-.025,9.755,0a12.469,12.469,0,0,1,2.372.264,6.6,6.6,0,0,1,.035,12.9,27.816,27.816,0,0,1-3.291.3C2756.411,3263.757,2755.838,3263.8,2755.09,3263.853Zm.213-8.669v3.6c1.2.119,2.275.29,3.1-.71a1.916,1.916,0,0,0-.014-2.225C2757.559,3254.877,2756.5,3254.973,2755.3,3255.184Z" transform="translate(-2746.658 -3250.229)" fill="#f7594a"/>
        </g>
        <g id="Group_296" data-name="Group 296" transform="translate(110.975 113.435)">
          <path id="Path_105" data-name="Path 105" d="M2935.612,3256.184l-5.476.521c-.106-.846-.188-1.492-.266-2.112-2.2-.4-2.692-.084-2.643,1.847.737.231,1.538.478,2.337.734a33.729,33.729,0,0,1,3.831,1.265c4.7,2.161,3.583,7.748.718,9.654a10.765,10.765,0,0,1-6.138,1.609,18.094,18.094,0,0,1-6.906-1.279V3263.2l5.4-.5c.142.879.248,1.526.349,2.148,2.411.473,3.05.142,3.15-1.789-.566-.181-1.18-.393-1.8-.574-1.294-.376-2.629-.641-3.882-1.124a5.214,5.214,0,0,1-3.731-4.973,5.815,5.815,0,0,1,3.442-5.634c2.423-1.205,5.011-1.079,7.581-.779a34.4,34.4,0,0,1,3.787.866C2935.816,3252.622,2935.495,3254.308,2935.612,3256.184Z" transform="translate(-2920.55 -3249.771)" fill="#f7594a"/>
        </g>
        <g id="Group_297" data-name="Group 297" transform="translate(36.169 113.826)">
          <path id="Path_106" data-name="Path 106" d="M2793.69,3250.491V3255l-2.177.258c-.393,1.23-.489,7.112-.138,9.558h2.583l.2-2.958,5.177-.588a27.519,27.519,0,0,1,.09,8.369h-16.607v-4.517l1.844-.34v-9.423l-1.861-.375v-4.494Z" transform="translate(-2782.799 -3250.491)" fill="#f7594a"/>
        </g>
        <g id="Group_298" data-name="Group 298" transform="translate(74.52 113.462)">
          <path id="Path_107" data-name="Path 107" d="M2869.917,3251.591v6.7c-1.677.749-3.468.482-5.42.716-.063-1.523-.123-2.954-.182-4.362-1.908-.119-2.969.464-3.57,2.05a8.652,8.652,0,0,0-.121,5.784,2.91,2.91,0,0,0,3.039,2.214,29.155,29.155,0,0,0,3.812-.52c.594-.1,1.167-.313,1.892-.514l.951,4.479c-3.789,1.656-7.5,2.211-11.348.74a7.293,7.293,0,0,1-3.386-2.464,10.681,10.681,0,0,1-1.156-11.007c1.561-3.7,4.648-5.4,8.615-5.572A10.974,10.974,0,0,1,2869.917,3251.591Z" transform="translate(-2853.42 -3249.821)" fill="#f7594a"/>
        </g>
        <g id="Group_299" data-name="Group 299" transform="translate(84.63 0.01)">
          <path id="Path_108" data-name="Path 108" d="M2872.038,3049.12a9.19,9.19,0,0,1,1.54-5.627,5.9,5.9,0,0,1,3.193-2.343,4.218,4.218,0,0,1,5.355,2.31,9.06,9.06,0,0,1-1.645,9.575,5.074,5.074,0,0,1-5.395,1.395c-1.962-.652-2.685-2.375-2.991-4.28A6.347,6.347,0,0,1,2872.038,3049.12Zm6.365-5.674c-.774-.358-1.541.694-1.858,1.251a8.727,8.727,0,0,0-.937,2.943,7.525,7.525,0,0,0-.071,3.14c.153.564.566,1.72,1.356,1.424a4.16,4.16,0,0,0,1.806-2.267,8.087,8.087,0,0,0,.466-4.794c-.1-.5-.222-1.362-.693-1.66A.612.612,0,0,0,2878.4,3043.446Z" transform="translate(-2872.037 -3040.906)" fill="#1a171d"/>
        </g>
        <g id="Group_300" data-name="Group 300" transform="translate(73.638 0.008)">
          <path id="Path_109" data-name="Path 109" d="M2856.473,3051.916h4.945l-.327,2.5H2851.8c.12-.872.224-1.63.336-2.445,1.177-.975,2.38-1.918,3.517-2.935a19.11,19.11,0,0,0,2.162-2.248,2.529,2.529,0,0,0,.286-3.087l-1.836-.12-.539,2.418-2.755.458c.153-1.541.287-2.9.422-4.263a9.023,9.023,0,0,1,5.175-1.268c2.8.193,4.212,2.444,3.249,5.091a10.98,10.98,0,0,1-3.537,4.386C2857.785,3050.827,2857.28,3051.24,2856.473,3051.916Z" transform="translate(-2851.797 -3040.903)" fill="#1a171d"/>
        </g>
        <g id="Group_301" data-name="Group 301" transform="translate(51.852)">
          <path id="Path_110" data-name="Path 110" d="M2811.835,3052.12c1.863-1.64,3.527-3,5.07-4.494a3.282,3.282,0,0,0,1.272-3.431c-.55-.807-1.271-.8-2.182-.414l-.428,2.192-2.814.458c.161-1.5.3-2.811.461-4.288a9,9,0,0,1,5.4-1.2c2.49.317,3.839,2.233,3.071,4.617a9.912,9.912,0,0,1-1.965,3.258,36.02,36.02,0,0,1-3.4,3.072h4.962c-.152.978-.261,1.686-.387,2.5h-9.216C2811.738,3053.539,2811.79,3052.776,2811.835,3052.12Z" transform="translate(-2811.679 -3040.888)" fill="#1a171d"/>
        </g>
        <g id="Group_302" data-name="Group 302" transform="translate(133.56 94.441)">
          <path id="Path_111" data-name="Path 111" d="M2972.216,3215c0,2.219,0,4.348,0,6.476-1.21.422-7.7.529-10.077.143v-6.486A47.02,47.02,0,0,1,2972.216,3215Z" transform="translate(-2962.138 -3214.795)" fill="#f7594a"/>
        </g>
        <g id="Group_303" data-name="Group 303" transform="translate(108.438 34.661)">
          <path id="Path_112" data-name="Path 112" d="M2923,3108.073a3.782,3.782,0,0,1-3.728,3.541,3.744,3.744,0,0,1-3.4-3.473,3.415,3.415,0,0,1,3.514-3.427A3.487,3.487,0,0,1,2923,3108.073Z" transform="translate(-2915.877 -3104.715)" fill="#0080de"/>
        </g>
        <g id="Group_304" data-name="Group 304" transform="translate(62.702 0.01)">
          <path id="Path_113" data-name="Path 113" d="M2831.66,3049.12a9.191,9.191,0,0,1,1.539-5.627,5.9,5.9,0,0,1,3.194-2.343,4.218,4.218,0,0,1,5.355,2.31,9.059,9.059,0,0,1-1.646,9.575,5.073,5.073,0,0,1-5.395,1.395c-1.962-.652-2.686-2.375-2.99-4.28A6.486,6.486,0,0,1,2831.66,3049.12Zm6.365-5.674c-.774-.358-1.541.694-1.858,1.251a8.712,8.712,0,0,0-.937,2.943,7.521,7.521,0,0,0-.07,3.14c.152.564.565,1.72,1.355,1.424a4.162,4.162,0,0,0,1.805-2.267,8.085,8.085,0,0,0,.466-4.794c-.1-.5-.222-1.362-.692-1.66A.641.641,0,0,0,2838.025,3043.446Z" transform="translate(-2831.659 -3040.906)" fill="#1a171d"/>
        </g>
      </g>
    </g>
    <g id="Group_307" data-name="Group 307" transform="translate(2476.627 2787.427)">
      <path id="Path_114" data-name="Path 114" d="M2829.072,3162.905a23.416,23.416,0,0,1-3.6-.281,23.078,23.078,0,1,1,26.355-19.25l-.536-.084.536.084a23.091,23.091,0,0,1-22.753,19.531Zm-.062-45.077a21.994,21.994,0,1,0,21.742,25.379h0a22,22,0,0,0-21.742-25.379Z" transform="translate(-2805.939 -3116.741)" fill="#1a171d"/>
    </g>
    <g id="Group_308" data-name="Group 308" transform="translate(2493.618 2804.415)">
      <circle id="Ellipse_63" data-name="Ellipse 63" cx="5.548" cy="5.548" r="5.548" transform="translate(0.544 0.544)" fill="#1a171d"/>
      <path id="Path_115" data-name="Path 115" d="M2843.333,3160.208a6.3,6.3,0,0,1-.951-.073,6.077,6.077,0,1,1,.951.073Zm-.024-11.1a5.018,5.018,0,1,0,.781.061A5.087,5.087,0,0,0,2843.309,3149.11Z" transform="translate(-2837.227 -3148.024)" fill="#ffe3e2"/>
    </g>
    <g id="Group_309" data-name="Group 309" transform="translate(2383.345 2694.141)">
      <path id="Path_116" data-name="Path 116" d="M2750.781,3177.694a117.846,117.846,0,0,1-18.157-1.413,116.34,116.34,0,1,1,132.862-97.044l-.537-.083.537.083a116.4,116.4,0,0,1-114.705,98.457Zm-.317-231.63a115.26,115.26,0,0,0-17.673,229.145,116.929,116.929,0,0,0,17.987,1.4,115.268,115.268,0,0,0,17.5-229.159A115.681,115.681,0,0,0,2750.463,2946.064Z" transform="translate(-2634.167 -2944.962)" fill="#1a171d"/>
    </g>
  </g>
</svg>
